<mxfile host="app.diagrams.net" modified="2021-01-13T22:33:37.034Z" agent="5.0 (Windows NT 10.0; WOW64) AppleWebKit/537.36 (KHTML, like Gecko) Chrome/87.0.4280.141 Safari/537.36" etag="1g8lL3InzzqKMz6d3JFP" version="14.2.2" type="github">
  <diagram id="mYT6tlnisWqXz5Zp-J6w" name="Page-1">
    <mxGraphModel dx="782" dy="380" grid="1" gridSize="10" guides="1" tooltips="1" connect="1" arrows="1" fold="1" page="1" pageScale="1" pageWidth="850" pageHeight="1100" math="0" shadow="0">
      <root>
        <mxCell id="0" />
        <mxCell id="1" parent="0" />
        <mxCell id="l6_Blp0GQNwSxE6LzaE0-1" value="Main Thread&lt;br&gt;(running forever)" style="rounded=0;whiteSpace=wrap;html=1;" vertex="1" parent="1">
          <mxGeometry x="320" y="20" width="120" height="60" as="geometry" />
        </mxCell>
        <mxCell id="l6_Blp0GQNwSxE6LzaE0-2" value="Live Data Thread * every 60 seconds" style="rounded=1;whiteSpace=wrap;html=1;" vertex="1" parent="1">
          <mxGeometry x="160" y="140" width="120" height="60" as="geometry" />
        </mxCell>
        <mxCell id="l6_Blp0GQNwSxE6LzaE0-32" style="edgeStyle=orthogonalEdgeStyle;rounded=0;orthogonalLoop=1;jettySize=auto;html=1;exitX=0.5;exitY=1;exitDx=0;exitDy=0;entryX=0.5;entryY=0;entryDx=0;entryDy=0;" edge="1" parent="1" source="l6_Blp0GQNwSxE6LzaE0-4" target="l6_Blp0GQNwSxE6LzaE0-31">
          <mxGeometry relative="1" as="geometry" />
        </mxCell>
        <mxCell id="l6_Blp0GQNwSxE6LzaE0-4" value="Buffer Data Thread * every 30 seconds" style="rounded=1;whiteSpace=wrap;html=1;" vertex="1" parent="1">
          <mxGeometry x="480" y="140" width="120" height="60" as="geometry" />
        </mxCell>
        <mxCell id="l6_Blp0GQNwSxE6LzaE0-5" value="" style="endArrow=none;html=1;entryX=0;entryY=1;entryDx=0;entryDy=0;exitX=0.5;exitY=0;exitDx=0;exitDy=0;" edge="1" parent="1" source="l6_Blp0GQNwSxE6LzaE0-2" target="l6_Blp0GQNwSxE6LzaE0-1">
          <mxGeometry width="50" height="50" relative="1" as="geometry">
            <mxPoint x="380" y="140" as="sourcePoint" />
            <mxPoint x="430" y="90" as="targetPoint" />
            <Array as="points" />
          </mxGeometry>
        </mxCell>
        <mxCell id="l6_Blp0GQNwSxE6LzaE0-6" value="" style="endArrow=none;html=1;exitX=0.5;exitY=0;exitDx=0;exitDy=0;entryX=1;entryY=1;entryDx=0;entryDy=0;" edge="1" parent="1" source="l6_Blp0GQNwSxE6LzaE0-4" target="l6_Blp0GQNwSxE6LzaE0-1">
          <mxGeometry width="50" height="50" relative="1" as="geometry">
            <mxPoint x="380" y="140" as="sourcePoint" />
            <mxPoint x="430" y="90" as="targetPoint" />
          </mxGeometry>
        </mxCell>
        <mxCell id="l6_Blp0GQNwSxE6LzaE0-9" value="Send Live Data" style="rounded=1;whiteSpace=wrap;html=1;" vertex="1" parent="1">
          <mxGeometry x="160" y="439" width="120" height="60" as="geometry" />
        </mxCell>
        <mxCell id="l6_Blp0GQNwSxE6LzaE0-21" style="edgeStyle=orthogonalEdgeStyle;rounded=0;orthogonalLoop=1;jettySize=auto;html=1;exitX=1;exitY=0.5;exitDx=0;exitDy=0;" edge="1" parent="1" source="l6_Blp0GQNwSxE6LzaE0-10" target="l6_Blp0GQNwSxE6LzaE0-11">
          <mxGeometry relative="1" as="geometry">
            <mxPoint x="391" y="877" as="targetPoint" />
            <Array as="points">
              <mxPoint x="391" y="589" />
            </Array>
          </mxGeometry>
        </mxCell>
        <mxCell id="l6_Blp0GQNwSxE6LzaE0-10" value="Check &lt;br&gt;server response&lt;br&gt;if response =" style="rhombus;whiteSpace=wrap;html=1;" vertex="1" parent="1">
          <mxGeometry x="160" y="539" width="120" height="100" as="geometry" />
        </mxCell>
        <mxCell id="l6_Blp0GQNwSxE6LzaE0-11" value="Increase Success Message Count" style="rounded=1;whiteSpace=wrap;html=1;" vertex="1" parent="1">
          <mxGeometry x="319" y="880" width="120" height="60" as="geometry" />
        </mxCell>
        <mxCell id="l6_Blp0GQNwSxE6LzaE0-12" value="Save Data in Buffer&lt;br&gt;Database" style="rounded=1;whiteSpace=wrap;html=1;" vertex="1" parent="1">
          <mxGeometry x="160" y="679" width="120" height="60" as="geometry" />
        </mxCell>
        <mxCell id="l6_Blp0GQNwSxE6LzaE0-34" style="edgeStyle=orthogonalEdgeStyle;rounded=0;orthogonalLoop=1;jettySize=auto;html=1;exitX=0.5;exitY=1;exitDx=0;exitDy=0;entryX=0.5;entryY=0;entryDx=0;entryDy=0;" edge="1" parent="1" source="l6_Blp0GQNwSxE6LzaE0-13" target="l6_Blp0GQNwSxE6LzaE0-33">
          <mxGeometry relative="1" as="geometry" />
        </mxCell>
        <mxCell id="l6_Blp0GQNwSxE6LzaE0-13" value="Increase Buffer&lt;br&gt;Message Count" style="rounded=1;whiteSpace=wrap;html=1;" vertex="1" parent="1">
          <mxGeometry x="160" y="779" width="120" height="60" as="geometry" />
        </mxCell>
        <mxCell id="l6_Blp0GQNwSxE6LzaE0-15" value="" style="endArrow=classic;html=1;exitX=0.5;exitY=1;exitDx=0;exitDy=0;entryX=0.5;entryY=0;entryDx=0;entryDy=0;" edge="1" parent="1" target="l6_Blp0GQNwSxE6LzaE0-9">
          <mxGeometry width="50" height="50" relative="1" as="geometry">
            <mxPoint x="220" y="399" as="sourcePoint" />
            <mxPoint x="230" y="349" as="targetPoint" />
          </mxGeometry>
        </mxCell>
        <mxCell id="l6_Blp0GQNwSxE6LzaE0-17" value="" style="endArrow=classic;html=1;exitX=0.5;exitY=1;exitDx=0;exitDy=0;entryX=0.5;entryY=0;entryDx=0;entryDy=0;" edge="1" parent="1" source="l6_Blp0GQNwSxE6LzaE0-9" target="l6_Blp0GQNwSxE6LzaE0-10">
          <mxGeometry width="50" height="50" relative="1" as="geometry">
            <mxPoint x="250" y="329" as="sourcePoint" />
            <mxPoint x="250" y="369" as="targetPoint" />
          </mxGeometry>
        </mxCell>
        <mxCell id="l6_Blp0GQNwSxE6LzaE0-19" value="" style="endArrow=classic;html=1;entryX=0.5;entryY=0;entryDx=0;entryDy=0;" edge="1" parent="1" target="l6_Blp0GQNwSxE6LzaE0-12">
          <mxGeometry width="50" height="50" relative="1" as="geometry">
            <mxPoint x="220" y="639" as="sourcePoint" />
            <mxPoint x="260" y="379" as="targetPoint" />
          </mxGeometry>
        </mxCell>
        <mxCell id="l6_Blp0GQNwSxE6LzaE0-20" value="" style="endArrow=classic;html=1;exitX=0.5;exitY=1;exitDx=0;exitDy=0;entryX=0.5;entryY=0;entryDx=0;entryDy=0;" edge="1" parent="1" source="l6_Blp0GQNwSxE6LzaE0-12" target="l6_Blp0GQNwSxE6LzaE0-13">
          <mxGeometry width="50" height="50" relative="1" as="geometry">
            <mxPoint x="360" y="759" as="sourcePoint" />
            <mxPoint x="410" y="709" as="targetPoint" />
          </mxGeometry>
        </mxCell>
        <mxCell id="l6_Blp0GQNwSxE6LzaE0-22" value="faliure" style="text;html=1;strokeColor=none;fillColor=none;align=center;verticalAlign=middle;whiteSpace=wrap;rounded=0;" vertex="1" parent="1">
          <mxGeometry x="220" y="649" width="40" height="20" as="geometry" />
        </mxCell>
        <mxCell id="l6_Blp0GQNwSxE6LzaE0-23" value="success" style="text;html=1;strokeColor=none;fillColor=none;align=center;verticalAlign=middle;whiteSpace=wrap;rounded=0;rotation=90;" vertex="1" parent="1">
          <mxGeometry x="385" y="719" width="40" height="20" as="geometry" />
        </mxCell>
        <mxCell id="l6_Blp0GQNwSxE6LzaE0-24" value="Update&lt;br&gt;Last average = new average" style="rounded=1;whiteSpace=wrap;html=1;" vertex="1" parent="1">
          <mxGeometry x="160" y="339" width="120" height="60" as="geometry" />
        </mxCell>
        <mxCell id="l6_Blp0GQNwSxE6LzaE0-27" value="Stimulate data and calculate new average" style="rounded=1;whiteSpace=wrap;html=1;" vertex="1" parent="1">
          <mxGeometry x="160" y="240" width="120" height="60" as="geometry" />
        </mxCell>
        <mxCell id="l6_Blp0GQNwSxE6LzaE0-29" value="" style="endArrow=classic;html=1;exitX=0.5;exitY=1;exitDx=0;exitDy=0;" edge="1" parent="1" source="l6_Blp0GQNwSxE6LzaE0-2" target="l6_Blp0GQNwSxE6LzaE0-27">
          <mxGeometry width="50" height="50" relative="1" as="geometry">
            <mxPoint x="380" y="350" as="sourcePoint" />
            <mxPoint x="430" y="300" as="targetPoint" />
          </mxGeometry>
        </mxCell>
        <mxCell id="l6_Blp0GQNwSxE6LzaE0-30" value="" style="endArrow=classic;html=1;exitX=0.5;exitY=1;exitDx=0;exitDy=0;entryX=0.5;entryY=0;entryDx=0;entryDy=0;" edge="1" parent="1" source="l6_Blp0GQNwSxE6LzaE0-27" target="l6_Blp0GQNwSxE6LzaE0-24">
          <mxGeometry width="50" height="50" relative="1" as="geometry">
            <mxPoint x="380" y="350" as="sourcePoint" />
            <mxPoint x="430" y="300" as="targetPoint" />
          </mxGeometry>
        </mxCell>
        <mxCell id="l6_Blp0GQNwSxE6LzaE0-49" style="edgeStyle=orthogonalEdgeStyle;rounded=0;orthogonalLoop=1;jettySize=auto;html=1;entryX=0.5;entryY=0;entryDx=0;entryDy=0;" edge="1" parent="1" source="l6_Blp0GQNwSxE6LzaE0-31" target="l6_Blp0GQNwSxE6LzaE0-38">
          <mxGeometry relative="1" as="geometry" />
        </mxCell>
        <mxCell id="l6_Blp0GQNwSxE6LzaE0-63" style="edgeStyle=orthogonalEdgeStyle;rounded=0;orthogonalLoop=1;jettySize=auto;html=1;" edge="1" parent="1" source="l6_Blp0GQNwSxE6LzaE0-31">
          <mxGeometry relative="1" as="geometry">
            <mxPoint x="640" y="531.3333740234375" as="targetPoint" />
          </mxGeometry>
        </mxCell>
        <mxCell id="l6_Blp0GQNwSxE6LzaE0-31" value="&lt;br&gt;Check buffer&lt;br&gt;if empty&lt;br&gt;yes/no" style="rhombus;whiteSpace=wrap;html=1;" vertex="1" parent="1">
          <mxGeometry x="480" y="240" width="120" height="100" as="geometry" />
        </mxCell>
        <mxCell id="l6_Blp0GQNwSxE6LzaE0-71" style="edgeStyle=orthogonalEdgeStyle;rounded=0;orthogonalLoop=1;jettySize=auto;html=1;entryX=0.5;entryY=0;entryDx=0;entryDy=0;" edge="1" parent="1" source="l6_Blp0GQNwSxE6LzaE0-33" target="l6_Blp0GQNwSxE6LzaE0-68">
          <mxGeometry relative="1" as="geometry" />
        </mxCell>
        <mxCell id="l6_Blp0GQNwSxE6LzaE0-33" value="FINISH&lt;br&gt;Live Thread" style="ellipse;whiteSpace=wrap;html=1;" vertex="1" parent="1">
          <mxGeometry x="160" y="880" width="120" height="70" as="geometry" />
        </mxCell>
        <mxCell id="l6_Blp0GQNwSxE6LzaE0-50" style="edgeStyle=orthogonalEdgeStyle;rounded=0;orthogonalLoop=1;jettySize=auto;html=1;entryX=0.5;entryY=0;entryDx=0;entryDy=0;" edge="1" parent="1" source="l6_Blp0GQNwSxE6LzaE0-38">
          <mxGeometry relative="1" as="geometry">
            <mxPoint x="540" y="479" as="targetPoint" />
          </mxGeometry>
        </mxCell>
        <mxCell id="l6_Blp0GQNwSxE6LzaE0-38" value="Send Buffer Data" style="rounded=1;whiteSpace=wrap;html=1;" vertex="1" parent="1">
          <mxGeometry x="480" y="379" width="120" height="60" as="geometry" />
        </mxCell>
        <mxCell id="l6_Blp0GQNwSxE6LzaE0-45" value="" style="endArrow=classic;html=1;exitX=0;exitY=0.5;exitDx=0;exitDy=0;" edge="1" parent="1" source="l6_Blp0GQNwSxE6LzaE0-11">
          <mxGeometry width="50" height="50" relative="1" as="geometry">
            <mxPoint x="390" y="850" as="sourcePoint" />
            <mxPoint x="280" y="910" as="targetPoint" />
          </mxGeometry>
        </mxCell>
        <mxCell id="l6_Blp0GQNwSxE6LzaE0-52" style="edgeStyle=orthogonalEdgeStyle;rounded=0;orthogonalLoop=1;jettySize=auto;html=1;entryX=0.5;entryY=0;entryDx=0;entryDy=0;" edge="1" source="l6_Blp0GQNwSxE6LzaE0-53" target="l6_Blp0GQNwSxE6LzaE0-55" parent="1">
          <mxGeometry relative="1" as="geometry" />
        </mxCell>
        <mxCell id="l6_Blp0GQNwSxE6LzaE0-53" value="Increase Success Message Count" style="rounded=1;whiteSpace=wrap;html=1;" vertex="1" parent="1">
          <mxGeometry x="480" y="620" width="120" height="60" as="geometry" />
        </mxCell>
        <mxCell id="l6_Blp0GQNwSxE6LzaE0-54" style="edgeStyle=orthogonalEdgeStyle;rounded=0;orthogonalLoop=1;jettySize=auto;html=1;entryX=0.5;entryY=0;entryDx=0;entryDy=0;" edge="1" source="l6_Blp0GQNwSxE6LzaE0-55" target="l6_Blp0GQNwSxE6LzaE0-57" parent="1">
          <mxGeometry relative="1" as="geometry" />
        </mxCell>
        <mxCell id="l6_Blp0GQNwSxE6LzaE0-55" value="Delete That Buffer Data Point" style="rounded=1;whiteSpace=wrap;html=1;" vertex="1" parent="1">
          <mxGeometry x="480" y="720" width="120" height="60" as="geometry" />
        </mxCell>
        <mxCell id="l6_Blp0GQNwSxE6LzaE0-56" style="edgeStyle=orthogonalEdgeStyle;rounded=0;orthogonalLoop=1;jettySize=auto;html=1;entryX=0.5;entryY=0;entryDx=0;entryDy=0;" edge="1" source="l6_Blp0GQNwSxE6LzaE0-57" target="l6_Blp0GQNwSxE6LzaE0-58" parent="1">
          <mxGeometry relative="1" as="geometry" />
        </mxCell>
        <mxCell id="l6_Blp0GQNwSxE6LzaE0-57" value="Decrease Buffer Message Count" style="rounded=1;whiteSpace=wrap;html=1;" vertex="1" parent="1">
          <mxGeometry x="480" y="820" width="120" height="60" as="geometry" />
        </mxCell>
        <mxCell id="l6_Blp0GQNwSxE6LzaE0-70" value="" style="edgeStyle=orthogonalEdgeStyle;rounded=0;orthogonalLoop=1;jettySize=auto;html=1;" edge="1" parent="1" source="l6_Blp0GQNwSxE6LzaE0-58" target="l6_Blp0GQNwSxE6LzaE0-69">
          <mxGeometry relative="1" as="geometry" />
        </mxCell>
        <mxCell id="l6_Blp0GQNwSxE6LzaE0-58" value="FINISH&lt;br&gt;Live Thread" style="ellipse;whiteSpace=wrap;html=1;" vertex="1" parent="1">
          <mxGeometry x="480" y="920" width="120" height="70" as="geometry" />
        </mxCell>
        <mxCell id="l6_Blp0GQNwSxE6LzaE0-60" style="edgeStyle=orthogonalEdgeStyle;rounded=0;orthogonalLoop=1;jettySize=auto;html=1;entryX=0.5;entryY=0;entryDx=0;entryDy=0;" edge="1" parent="1" source="l6_Blp0GQNwSxE6LzaE0-59" target="l6_Blp0GQNwSxE6LzaE0-53">
          <mxGeometry relative="1" as="geometry" />
        </mxCell>
        <mxCell id="l6_Blp0GQNwSxE6LzaE0-62" style="edgeStyle=orthogonalEdgeStyle;rounded=0;orthogonalLoop=1;jettySize=auto;html=1;exitX=1;exitY=0.5;exitDx=0;exitDy=0;entryX=1;entryY=0.5;entryDx=0;entryDy=0;" edge="1" parent="1" source="l6_Blp0GQNwSxE6LzaE0-59" target="l6_Blp0GQNwSxE6LzaE0-58">
          <mxGeometry relative="1" as="geometry">
            <mxPoint x="640" y="950.6666259765625" as="targetPoint" />
            <Array as="points">
              <mxPoint x="640" y="530" />
              <mxPoint x="640" y="955" />
            </Array>
          </mxGeometry>
        </mxCell>
        <mxCell id="l6_Blp0GQNwSxE6LzaE0-59" value="Check &lt;br&gt;server response&lt;br&gt;if response =" style="rhombus;whiteSpace=wrap;html=1;" vertex="1" parent="1">
          <mxGeometry x="480" y="480" width="120" height="100" as="geometry" />
        </mxCell>
        <mxCell id="l6_Blp0GQNwSxE6LzaE0-61" value="success" style="text;html=1;align=center;verticalAlign=middle;resizable=0;points=[];autosize=1;" vertex="1" parent="1">
          <mxGeometry x="540" y="590" width="60" height="20" as="geometry" />
        </mxCell>
        <mxCell id="l6_Blp0GQNwSxE6LzaE0-64" value="faliure" style="text;html=1;align=center;verticalAlign=middle;resizable=0;points=[];autosize=1;rotation=90;" vertex="1" parent="1">
          <mxGeometry x="630" y="680" width="50" height="20" as="geometry" />
        </mxCell>
        <mxCell id="l6_Blp0GQNwSxE6LzaE0-65" value="No" style="text;html=1;align=center;verticalAlign=middle;resizable=0;points=[];autosize=1;" vertex="1" parent="1">
          <mxGeometry x="540" y="350" width="30" height="20" as="geometry" />
        </mxCell>
        <mxCell id="l6_Blp0GQNwSxE6LzaE0-66" value="Yes" style="text;html=1;align=center;verticalAlign=middle;resizable=0;points=[];autosize=1;rotation=90;" vertex="1" parent="1">
          <mxGeometry x="640" y="379" width="30" height="20" as="geometry" />
        </mxCell>
        <mxCell id="l6_Blp0GQNwSxE6LzaE0-72" style="edgeStyle=orthogonalEdgeStyle;rounded=0;orthogonalLoop=1;jettySize=auto;html=1;entryX=0;entryY=0.5;entryDx=0;entryDy=0;exitX=0;exitY=0.5;exitDx=0;exitDy=0;" edge="1" parent="1" source="l6_Blp0GQNwSxE6LzaE0-68" target="l6_Blp0GQNwSxE6LzaE0-2">
          <mxGeometry relative="1" as="geometry">
            <Array as="points">
              <mxPoint x="80" y="1020" />
              <mxPoint x="80" y="170" />
            </Array>
          </mxGeometry>
        </mxCell>
        <mxCell id="l6_Blp0GQNwSxE6LzaE0-68" value="Wait 60 Seconds" style="rounded=0;whiteSpace=wrap;html=1;" vertex="1" parent="1">
          <mxGeometry x="160" y="990" width="120" height="60" as="geometry" />
        </mxCell>
        <mxCell id="l6_Blp0GQNwSxE6LzaE0-73" style="edgeStyle=orthogonalEdgeStyle;rounded=0;orthogonalLoop=1;jettySize=auto;html=1;entryX=1;entryY=0.5;entryDx=0;entryDy=0;" edge="1" parent="1" source="l6_Blp0GQNwSxE6LzaE0-69" target="l6_Blp0GQNwSxE6LzaE0-4">
          <mxGeometry relative="1" as="geometry">
            <Array as="points">
              <mxPoint x="670" y="1060" />
              <mxPoint x="670" y="170" />
            </Array>
          </mxGeometry>
        </mxCell>
        <mxCell id="l6_Blp0GQNwSxE6LzaE0-69" value="Wait 30 Seconds" style="rounded=0;whiteSpace=wrap;html=1;" vertex="1" parent="1">
          <mxGeometry x="480" y="1030" width="120" height="60" as="geometry" />
        </mxCell>
      </root>
    </mxGraphModel>
  </diagram>
</mxfile>
